<?xml version="1.0" standalone="no"?>
<!DOCTYPE svg PUBLIC "-//W3C//DTD SVG 20010904//EN"
 "http://www.w3.org/TR/2001/REC-SVG-20010904/DTD/svg10.dtd">
<svg version="1.0" xmlns="http://www.w3.org/2000/svg"
 width="563.000000pt" height="681.000000pt" viewBox="0 0 563.000000 681.000000"
 preserveAspectRatio="xMidYMid meet">

<g transform="translate(0.000000,681.000000) scale(0.100000,-0.100000)"
fill="#000000" stroke="none">
<path d="M2927 6494 c-2 -2 -84 -6 -183 -9 -243 -7 -343 -20 -429 -55 -11 -5
-47 -16 -80 -25 -82 -23 -115 -36 -115 -45 0 -11 -136 -70 -161 -70 -11 0 -41
-20 -67 -44 -26 -24 -58 -46 -72 -49 -28 -7 -90 -58 -90 -74 0 -9 -25 -25 -33
-21 -4 3 -67 -64 -67 -71 0 -4 -9 -16 -20 -26 -11 -10 -20 -23 -20 -29 -1 -17
-78 -95 -114 -115 -17 -10 -61 -56 -98 -102 -36 -46 -78 -95 -92 -109 -14 -14
-26 -32 -26 -39 0 -7 -15 -27 -33 -44 -18 -18 -41 -45 -50 -60 -10 -15 -29
-32 -42 -37 -17 -6 -22 -14 -18 -29 3 -13 -7 -35 -33 -66 -22 -26 -38 -51 -36
-57 1 -5 -7 -23 -19 -39 -72 -101 -118 -250 -127 -413 -7 -105 -5 -118 15
-163 13 -26 23 -60 23 -74 0 -36 27 -127 51 -171 12 -24 20 -57 20 -92 1 -31
5 -53 10 -50 5 3 9 -10 9 -28 0 -19 5 -39 11 -45 10 -10 -16 -19 -121 -39 -19
-3 -41 -11 -47 -16 -14 -11 -17 -95 -7 -171 l7 -46 51 -3 51 -3 11 -80 c7 -44
20 -113 29 -154 9 -40 14 -87 11 -103 -5 -26 -4 -29 8 -19 12 10 16 8 21 -11
30 -98 109 -193 189 -228 145 -62 532 -72 745 -19 47 11 113 34 146 51 l60 30
-44 -41 c-24 -23 -50 -41 -58 -41 -7 0 -13 -4 -13 -10 0 -5 -9 -10 -20 -10
-11 0 -20 -5 -20 -11 0 -5 -3 -8 -7 -6 -5 3 -36 -1 -71 -8 -34 -7 -102 -16
-150 -20 -48 -3 -121 -11 -162 -17 -41 -6 -109 -12 -150 -13 -41 -1 -84 -3
-95 -4 l-20 -2 20 -8 c21 -9 599 -4 672 5 62 8 88 35 143 148 46 92 96 167
151 222 25 25 33 40 94 159 75 146 103 163 219 134 36 -9 45 -16 57 -47 42
-106 65 -154 74 -151 6 2 9 14 7 27 -2 17 2 22 18 22 11 0 23 -8 26 -18 4 -9
12 -31 20 -49 8 -17 14 -38 14 -47 0 -9 5 -16 10 -16 17 0 11 -18 -7 -22 -14
-2 -11 -7 11 -21 20 -14 31 -15 40 -8 11 9 14 2 19 -35 6 -59 -20 -94 -69 -94
-28 0 -34 -5 -43 -32 -14 -46 -15 -68 -7 -103 24 -95 48 -110 100 -64 46 39
83 38 130 -4 20 -18 36 -41 36 -49 0 -9 5 -18 11 -20 8 -3 2 -20 -16 -46 -21
-32 -34 -42 -55 -42 -15 0 -48 -3 -73 -6 -43 -6 -46 -5 -61 25 -9 17 -14 41
-11 54 10 38 -16 52 -45 24 -21 -19 -22 -22 -7 -25 27 -5 20 -22 -9 -22 -26 0
-74 -40 -74 -60 0 -5 -12 -12 -27 -15 -16 -4 -35 -10 -43 -15 -8 -5 -34 -18
-56 -29 -23 -10 -45 -24 -48 -30 -4 -6 -16 -11 -27 -11 -10 0 -28 -5 -39 -12
-15 -10 -22 -9 -38 5 -10 9 -22 14 -25 10 -4 -3 -7 -2 -7 4 0 12 -52 24 -115
28 -22 1 -58 6 -80 10 -62 13 -116 8 -157 -12 l-38 -19 29 -34 c15 -19 36 -52
46 -73 22 -47 46 -60 107 -58 41 1 48 -1 48 -18 0 -10 -7 -24 -15 -31 -7 -6
-17 -32 -21 -56 -3 -24 -10 -44 -15 -44 -5 0 -9 -11 -9 -25 0 -28 -27 -35 -36
-10 -4 8 -14 15 -23 15 -12 0 -13 -2 -3 -9 8 -5 12 -20 9 -37 -4 -27 -5 -27
-12 -7 -8 25 -31 37 -41 22 -3 -6 -12 -2 -21 10 -8 12 -18 19 -22 16 -5 -2
-33 2 -62 9 -69 18 -96 15 -115 -12 -20 -28 -51 -28 -75 0 -26 32 -26 111 1
145 11 14 20 34 20 44 0 10 13 33 30 52 20 23 27 40 23 55 -3 13 -1 22 6 22
16 0 13 27 -4 33 -9 4 -25 -10 -45 -39 -16 -25 -30 -49 -30 -55 0 -5 -6 -9
-14 -9 -8 0 -23 -19 -35 -43 -11 -23 -30 -50 -41 -59 -11 -10 -20 -24 -20 -32
0 -7 -16 -30 -35 -51 -19 -21 -32 -42 -29 -47 3 -4 -1 -17 -9 -29 -15 -20 -12
-59 3 -59 5 0 3 -13 -3 -30 -16 -43 0 -84 36 -88 19 -2 27 -9 27 -23 0 -30 -1
-34 -10 -32 -4 1 -8 -8 -8 -20 -1 -12 -5 -44 -10 -72 -9 -47 -8 -52 16 -77 31
-34 56 -43 79 -29 12 7 13 10 4 11 -11 0 -11 3 -1 15 7 8 9 15 4 15 -22 1 24
20 47 20 14 0 29 4 35 9 19 18 126 42 157 35 35 -7 78 -32 90 -51 5 -8 13 -10
19 -7 7 4 8 2 4 -4 -4 -7 -3 -12 2 -12 6 0 15 -14 21 -31 10 -29 29 -55 79
-104 24 -25 29 -51 10 -59 -9 -3 -4 -12 14 -26 22 -17 25 -25 18 -44 -6 -17
-4 -25 11 -35 11 -6 24 -9 30 -5 5 3 17 0 25 -7 26 -21 160 -43 170 -27 9 14
54 9 54 -6 0 -8 16 -16 41 -20 30 -5 39 -10 35 -21 -3 -9 1 -15 10 -15 15 0
14 11 -3 58 -7 17 12 15 28 -4 12 -14 14 -14 24 0 8 11 38 17 106 21 52 4 101
9 109 12 8 3 28 7 45 9 16 3 33 11 38 19 4 8 22 15 40 15 21 0 36 7 45 20 7
11 19 20 28 20 8 0 12 5 9 10 -4 6 -12 7 -18 3 -8 -4 -8 -1 1 9 7 9 26 21 42
28 17 7 30 16 30 21 0 5 7 9 15 9 15 0 57 57 90 124 13 24 32 44 53 52 17 8
32 21 32 29 0 8 6 15 14 15 8 0 22 10 30 21 13 19 21 21 57 15 50 -8 108 -65
109 -106 0 -18 6 -26 18 -26 9 0 30 -3 45 -7 l28 -8 -16 31 c-14 28 -14 31 5
50 11 11 20 24 20 29 0 5 8 17 17 27 12 11 14 19 6 21 -8 3 -9 13 -1 36 15 49
19 89 8 82 -6 -3 -10 -16 -10 -28 0 -20 -2 -19 -15 7 -23 43 -19 48 24 41 34
-6 39 -4 44 16 3 13 2 28 -3 34 -5 6 -12 30 -16 53 -5 31 -11 42 -25 42 -10 0
-20 4 -23 8 -2 4 10 6 29 4 18 -2 36 1 39 7 13 20 31 11 88 -42 48 -44 59 -62
70 -106 10 -46 10 -56 -6 -82 -9 -16 -14 -29 -10 -29 3 0 -1 -11 -10 -25 -9
-13 -16 -34 -16 -45 0 -11 -8 -33 -17 -48 -26 -42 -110 -122 -125 -119 -7 2
-10 2 -5 0 4 -3 7 -13 7 -23 0 -10 5 -22 10 -25 6 -3 10 -12 10 -18 0 -7 -8
-2 -18 11 -15 20 -23 22 -60 16 -42 -7 -59 -24 -24 -24 11 0 27 -9 37 -20 17
-19 17 -22 3 -37 -15 -14 -14 -19 8 -59 27 -47 28 -54 15 -54 -5 0 -11 8 -13
18 -3 16 -8 17 -35 10 -19 -5 -33 -15 -33 -24 0 -9 -8 -14 -17 -13 -49 5 -75
-1 -69 -16 7 -20 -14 -65 -31 -65 -7 0 -13 -5 -13 -11 0 -5 -4 -8 -9 -5 -7 5
-13 -8 -22 -44 -3 -14 -23 -30 -38 -30 -10 0 -27 -14 -40 -30 -20 -28 -23 -29
-43 -16 -20 14 -23 14 -36 -5 -8 -11 -20 -18 -28 -15 -9 3 -14 -1 -14 -14 0
-12 -8 -20 -22 -22 -14 -2 -23 -10 -22 -19 1 -11 -5 -14 -22 -11 -13 2 -31 -1
-39 -8 -11 -9 -32 -11 -69 -6 -53 6 -54 5 -59 -22 -4 -18 0 -31 11 -41 15 -12
15 -13 -5 -8 -17 4 -23 0 -25 -17 -2 -11 -9 -20 -16 -18 -7 1 -21 -2 -31 -7
-15 -8 -20 -5 -30 15 -6 14 -16 24 -23 22 -17 -6 -40 -78 -25 -78 8 0 7 -4 -1
-12 -10 -10 -15 -10 -22 2 -9 13 -11 13 -20 0 -5 -8 -10 -22 -11 -30 0 -9 -4
-7 -11 7 -13 27 -26 29 -35 7 -3 -8 -11 -13 -18 -10 -13 5 -30 -20 -26 -38 1
-5 -1 -16 -4 -24 -4 -11 -9 -9 -25 9 l-19 24 -1 -28 c0 -20 -6 -30 -20 -34
-11 -3 -20 -9 -20 -14 0 -5 -4 -9 -10 -9 -5 0 -10 7 -10 15 0 25 -33 14 -42
-14 -3 -11 -9 -9 -25 8 -11 12 -26 19 -34 16 -9 -3 -21 6 -33 26 -15 26 -23
30 -48 27 -24 -4 -32 -1 -36 14 -4 15 -7 16 -20 6 -12 -10 -16 -10 -19 0 -7
19 -23 14 -23 -8 0 -12 -7 -20 -16 -20 -13 0 -15 7 -10 31 6 29 4 31 -19 25
-29 -7 -42 12 -29 41 4 10 9 29 10 42 3 24 2 24 -15 -5 -10 -16 -30 -40 -45
-53 -14 -14 -26 -32 -26 -42 0 -24 -17 -33 -23 -11 -2 9 -8 26 -13 36 -5 14
-4 17 4 12 15 -9 16 6 2 20 -8 8 -6 15 5 24 8 7 15 20 15 29 -1 13 -5 11 -20
-7 -21 -26 -37 -13 -20 17 16 31 -21 47 -60 27 -33 -16 -35 -14 -20 14 6 11 6
21 1 24 -5 4 -15 -17 -22 -44 -9 -37 -17 -50 -28 -48 -12 3 -15 14 -14 46 2
30 -1 42 -11 42 -8 0 -17 7 -20 15 -4 12 -14 14 -43 9 -21 -4 -41 -12 -45 -18
-5 -7 -8 -5 -8 6 0 9 4 20 10 23 5 3 10 20 10 36 0 26 -2 29 -19 19 -34 -18
-41 -11 -41 34 0 25 -4 48 -10 51 -5 3 -10 -2 -10 -12 0 -15 -2 -16 -10 -3 -5
8 -7 25 -3 37 5 23 -10 32 -22 12 -5 -7 -13 -4 -26 7 -14 12 -16 21 -9 35 14
25 1 50 -24 48 -39 -3 -46 1 -46 26 0 22 -3 24 -32 20 -18 -3 -27 -3 -20 1 6
3 12 10 12 16 0 6 7 16 15 22 14 10 14 16 2 46 -8 19 -12 41 -9 49 2 7 -1 12
-7 9 -7 -2 -13 -8 -13 -13 0 -19 -22 -36 -39 -32 -10 3 -20 0 -22 -7 -2 -6 -7
-8 -11 -4 -8 6 11 49 25 58 12 8 -28 70 -46 70 -8 0 -17 11 -21 24 -6 27 -34
29 -43 3 -4 -11 -10 -14 -21 -7 -12 8 -12 11 3 28 24 27 21 35 -11 30 -25 -3
-28 -1 -24 18 2 12 -2 32 -8 45 -11 19 -10 24 4 35 15 10 13 13 -14 22 -20 8
-30 18 -30 31 0 12 -9 30 -20 41 -11 11 -20 23 -20 27 0 15 -35 83 -42 83 -5
0 -14 -13 -19 -29 -7 -20 -15 -28 -25 -24 -9 3 -11 10 -6 17 17 20 10 48 -10
43 -11 -3 -18 0 -18 9 0 8 5 14 12 14 6 0 4 7 -5 18 -23 25 -22 45 2 37 14 -4
20 0 23 20 7 32 0 32 -38 -2 -18 -16 -35 -29 -40 -30 -5 -1 -17 -5 -28 -9 -16
-6 -18 -3 -12 27 6 29 5 32 -6 18 -11 -14 -15 -14 -26 -3 -6 7 -12 20 -12 27
0 8 -7 28 -15 43 -8 16 -12 37 -9 46 3 10 -2 19 -14 22 -16 6 -21 24 -32 139
-8 72 -14 250 -15 395 -1 144 -5 265 -9 269 -3 3 -6 -5 -6 -19 0 -28 -28 -90
-38 -84 -4 2 -8 -37 -8 -87 -1 -51 -6 -129 -11 -174 -6 -57 -6 -84 2 -87 5 -3
0 -8 -12 -11 -25 -8 -31 -27 -25 -77 4 -37 22 -54 22 -22 0 8 4 12 10 9 11 -7
10 -57 -2 -65 -4 -3 -3 -25 3 -48 10 -44 3 -92 -12 -92 -5 0 -9 -10 -9 -22 0
-19 2 -20 10 -8 9 13 10 13 11 0 3 -31 4 -36 23 -63 13 -19 15 -31 8 -40 -10
-13 -4 -80 7 -73 12 7 6 -139 -7 -161 -11 -21 -11 -23 9 -20 12 1 24 -4 27
-12 3 -8 0 -11 -6 -7 -6 3 -13 2 -17 -3 -3 -5 1 -14 10 -18 8 -5 17 -27 20
-48 6 -59 27 -135 37 -135 17 0 7 -19 -13 -25 -21 -7 -22 -42 -1 -38 7 2 12
-5 12 -16 0 -10 7 -24 15 -31 8 -7 15 -22 15 -34 0 -12 5 -27 12 -34 6 -6 11
-26 10 -44 0 -20 2 -27 7 -19 12 19 19 2 16 -39 -1 -19 1 -37 6 -40 14 -9 22
-60 9 -60 -6 0 -9 -4 -5 -10 3 -5 12 -7 20 -3 11 3 13 1 9 -10 -7 -19 24 -80
37 -72 6 4 8 -4 5 -20 -6 -30 2 -55 16 -55 6 0 8 9 5 21 -4 15 -2 18 7 10 7
-6 11 -24 8 -41 -3 -25 -1 -29 12 -24 11 4 16 1 16 -10 0 -9 3 -15 8 -15 38 6
42 -13 7 -45 -21 -20 -23 -25 -10 -30 9 -3 18 0 21 8 3 8 12 17 19 20 12 4 12
0 3 -19 -6 -14 -15 -25 -21 -25 -5 0 -6 -11 -3 -24 3 -14 2 -27 -3 -31 -13 -7
-23 28 -15 50 6 13 4 16 -5 10 -9 -5 -12 -21 -8 -47 4 -31 2 -38 -9 -34 -7 3
-16 1 -18 -3 -3 -5 -19 -7 -36 -5 -18 2 -30 -1 -30 -8 0 -6 -3 -8 -6 -5 -4 4
-1 13 6 22 10 13 9 15 -8 15 -14 0 -20 -5 -16 -13 3 -8 -2 -20 -11 -27 -13
-11 -15 -10 -10 2 5 14 -3 14 -76 2 -46 -7 -86 -11 -89 -9 -4 3 -35 -6 -70
-20 -34 -13 -83 -26 -109 -29 -25 -2 -107 -21 -181 -40 -74 -20 -171 -45 -215
-56 -44 -12 -108 -30 -143 -40 -34 -11 -75 -20 -90 -20 -15 0 -33 -5 -39 -11
-6 -6 -35 -17 -65 -24 -33 -7 -54 -17 -56 -27 -2 -12 21 -9 129 19 73 18 138
38 143 42 6 5 46 13 88 19 42 5 91 17 108 25 17 9 52 19 78 23 26 3 51 9 56
12 6 3 19 7 30 8 48 4 148 28 251 58 82 25 130 34 190 34 72 1 160 17 207 37
17 7 17 4 1 -41 -9 -27 -19 -58 -24 -69 -19 -50 -49 -156 -49 -175 0 -12 -4
-30 -10 -40 -5 -10 -10 -74 -11 -143 -1 -97 -5 -127 -15 -131 -8 -3 -14 -11
-14 -17 0 -8 4 -8 15 1 12 10 15 8 19 -12 5 -26 18 -148 20 -190 0 -16 4 -28
9 -28 4 0 7 -8 7 -18 0 -26 55 -213 85 -289 15 -38 48 -112 74 -165 l46 -98
143 0 c79 0 141 3 139 8 -3 4 -27 43 -54 87 -63 102 -162 335 -183 430 -5 22
-15 65 -24 95 -29 105 -55 285 -57 395 -2 116 8 225 21 225 4 0 5 12 2 26 -3
16 -1 24 4 21 6 -3 11 13 11 35 1 23 7 46 14 52 9 8 10 8 5 -2 -4 -7 -1 -26 8
-42 14 -28 14 -29 -5 -20 -12 7 -19 7 -19 1 0 -5 9 -13 20 -16 16 -5 20 -15
20 -48 0 -33 3 -39 11 -27 9 12 10 11 4 -5 -25 -71 -26 -105 -4 -105 13 0 9
-124 -4 -132 -8 -5 -4 -8 9 -8 12 0 27 -7 34 -15 9 -10 9 -15 1 -15 -16 0 -14
-21 9 -65 20 -40 36 -55 58 -55 17 0 15 27 -4 38 -13 7 -14 15 -5 48 5 21 13
56 16 77 3 20 10 37 15 37 6 0 10 8 10 18 1 16 1 16 14 0 7 -10 18 -18 25 -18
6 0 11 -7 11 -16 0 -8 5 -12 11 -8 6 3 16 0 21 -7 7 -11 11 -11 15 -1 7 17 20
15 20 -3 0 -9 -10 -15 -23 -15 -29 0 -37 -12 -21 -33 11 -15 16 -15 56 -1 42
14 69 11 42 -5 -10 -6 -9 -10 4 -15 9 -3 13 -11 10 -17 -7 -11 27 -49 44 -49
5 0 11 -12 13 -27 2 -22 9 -29 31 -31 29 -4 37 -26 11 -36 -20 -8 -8 -28 14
-24 17 4 43 -23 55 -54 4 -10 17 -18 30 -18 13 0 32 -9 42 -20 10 -11 24 -20
30 -20 7 0 24 -18 39 -40 14 -22 33 -40 41 -40 9 0 18 -7 21 -15 4 -8 18 -15
33 -15 36 0 51 -17 51 -59 0 -19 3 -32 6 -29 3 4 22 -5 42 -19 20 -13 49 -27
65 -30 15 -3 27 -9 27 -14 0 -5 7 -9 15 -9 9 0 18 -7 21 -15 4 -8 10 -15 16
-15 5 0 7 4 4 9 -3 5 24 -20 61 -55 65 -62 103 -79 119 -53 4 7 23 9 53 4 130
-19 161 -25 221 -40 36 -9 79 -17 96 -16 17 0 39 -8 51 -18 16 -16 36 -19 104
-19 46 0 90 4 96 10 7 6 30 8 50 4 64 -10 290 -8 310 3 42 23 91 39 137 45 27
3 57 13 66 21 9 8 26 15 37 15 11 0 26 6 32 14 6 7 25 16 41 20 17 3 43 14 58
24 51 36 161 102 170 102 4 0 15 9 25 20 9 11 23 20 30 20 6 0 25 12 41 26 22
21 25 29 14 36 -10 7 -10 8 2 6 8 -1 53 34 99 80 46 45 87 82 91 82 11 0 120
109 120 120 0 4 15 12 33 15 17 4 46 16 63 26 17 10 41 19 54 19 20 0 21 -3
15 -42 -4 -24 -10 -47 -14 -53 -3 -5 -6 -12 -6 -15 -1 -28 -68 -206 -107 -285
-39 -77 -119 -214 -130 -221 -4 -3 -8 -14 -8 -25 0 -10 -4 -19 -9 -19 -5 0
-12 -8 -15 -18 -4 -10 -22 -35 -41 -56 -19 -21 -44 -53 -56 -72 l-21 -34 129
0 c148 0 173 5 173 31 0 11 7 19 16 19 9 0 14 6 11 13 -3 8 -1 20 4 28 7 11 9
11 9 1 0 -7 5 -10 10 -7 6 4 8 10 5 15 -3 4 -2 16 1 25 5 13 8 14 15 3 6 -9 9
-7 9 9 0 12 5 25 10 28 6 4 9 14 8 23 -3 18 5 19 60 7 35 -8 47 10 15 22 -56
21 -51 60 6 55 24 -2 42 1 46 9 6 9 1 11 -19 7 -14 -3 -27 -2 -27 1 -9 42 -6
47 32 50 22 1 47 -3 57 -8 14 -8 18 -6 19 10 1 10 -4 19 -11 19 -14 0 -28 35
-18 44 13 13 11 65 -3 76 -20 17 -19 66 1 74 11 4 14 13 10 31 -4 14 -2 25 4
25 5 0 10 11 10 25 0 14 9 39 21 54 19 26 26 28 66 25 39 -4 44 -2 41 13 -2
13 -14 18 -38 19 -51 2 -53 3 -43 17 6 6 10 24 9 40 -1 16 3 27 11 27 7 0 13
9 13 20 0 11 -4 20 -10 20 -5 0 -10 5 -10 10 0 6 6 10 13 9 42 -5 52 15 12 25
-34 9 -32 22 5 29 19 4 34 17 44 36 9 16 21 31 28 34 10 3 10 7 1 17 -9 10
-15 10 -26 1 -12 -9 -15 -7 -19 12 -5 24 17 54 27 38 3 -5 -1 -12 -7 -14 -7
-3 -3 -6 10 -6 12 -1 22 -5 22 -11 0 -5 6 -10 14 -10 8 0 18 -9 21 -20 3 -11
13 -20 21 -20 8 0 14 -4 14 -9 0 -5 -9 -7 -20 -4 -11 3 -20 1 -20 -4 0 -5 -10
-9 -22 -9 -14 1 -24 -6 -26 -18 -3 -14 0 -17 11 -13 23 9 29 -4 9 -19 -16 -12
-16 -13 3 -15 11 -1 24 -1 29 0 5 1 16 -5 25 -12 9 -8 32 -15 51 -15 19 0 29
2 23 6 -8 5 -9 13 -2 22 7 12 11 12 17 2 6 -9 13 -7 30 8 21 20 92 29 92 11 0
-5 38 -21 85 -36 47 -15 87 -30 89 -34 3 -4 23 -5 45 -3 38 4 41 6 41 33 0 27
-2 29 -26 23 -17 -4 -25 -3 -21 3 4 6 -5 15 -18 21 -13 6 -27 7 -30 2 -3 -4 1
-11 7 -13 9 -4 8 -6 -2 -6 -8 0 -26 11 -39 25 -13 14 -27 21 -30 17 -3 -5 -19
-9 -36 -10 -16 -1 -24 1 -17 4 6 2 9 10 5 15 -4 7 2 9 17 5 15 -4 20 -3 13 4
-6 6 -34 10 -64 10 -53 1 -84 13 -73 30 3 5 -11 16 -30 26 -34 16 -47 33 -26
33 6 0 10 -5 10 -12 0 -6 3 -9 6 -5 3 3 33 -8 67 -25 33 -17 74 -32 91 -34 17
-1 48 -10 68 -18 21 -9 49 -16 63 -16 14 0 25 -4 25 -10 0 -5 9 -10 20 -10 11
0 20 6 20 14 0 8 -26 20 -67 30 -38 10 -86 26 -109 37 -23 10 -48 19 -56 19
-8 0 -24 9 -36 20 -12 11 -26 20 -32 20 -17 0 -60 31 -55 40 9 14 -23 32 -45
25 -15 -5 -20 -2 -20 13 0 11 -6 23 -12 26 -7 4 -2 4 11 2 26 -5 50 12 43 32
-12 36 81 9 253 -72 39 -18 82 -36 98 -40 l27 -6 0 208 c0 144 -4 212 -12 220
-6 6 -11 25 -10 42 0 20 -4 30 -14 30 -8 0 -14 8 -14 18 0 10 -5 23 -10 28
-17 17 -28 69 -18 87 6 11 5 24 -3 38 -8 16 -8 23 0 28 13 9 -20 117 -35 114
-5 -2 -9 5 -9 15 0 9 -10 31 -22 49 -13 17 -23 41 -23 54 0 12 -10 33 -22 46
-21 23 -21 23 -2 46 26 29 32 77 9 77 -13 0 -15 6 -10 32 9 44 7 95 -5 118 -6
10 -10 42 -10 70 0 44 3 52 25 62 30 13 31 22 6 40 -15 10 -19 26 -19 68 0 30
-3 72 -7 93 -4 21 -2 57 4 83 10 38 9 49 -2 63 -9 10 -13 31 -10 56 10 98 0
197 -25 238 -11 17 -20 43 -20 57 0 28 -30 130 -43 145 -5 5 -9 18 -9 29 0 11
-6 27 -14 35 -8 9 -17 27 -20 41 -12 63 -27 88 -57 94 -29 5 -35 22 -30 78 1
9 -3 19 -9 23 -8 5 -4 15 11 31 l22 24 -34 14 c-40 17 -73 57 -119 144 -18 35
-43 71 -55 80 -12 10 -25 29 -28 44 -4 15 -16 32 -27 38 -11 6 -20 17 -20 25
0 8 -6 15 -14 15 -8 0 -16 10 -20 23 -3 12 -21 32 -40 45 -19 13 -41 38 -50
56 -9 18 -22 39 -31 46 -8 7 -15 21 -15 31 0 10 -9 20 -19 24 -11 3 -41 26
-68 51 l-47 45 0 67 c1 84 12 212 21 232 3 8 5 30 4 48 -2 21 3 34 12 38 12 4
14 21 11 82 -9 203 -27 271 -128 502 -6 14 -30 50 -53 81 -24 30 -43 59 -43
64 0 10 -70 97 -87 108 -7 4 -13 13 -13 19 0 6 -19 30 -42 53 -24 23 -59 61
-78 84 -73 88 -135 147 -179 170 -11 6 -21 21 -23 33 -2 13 -15 29 -31 36 -15
7 -33 22 -40 33 -6 10 -19 19 -29 19 -10 0 -21 13 -28 34 -9 27 -30 47 -97 92
-78 51 -162 92 -203 98 -8 1 -30 10 -47 19 -18 10 -35 16 -38 15 -2 -2 -15 6
-27 16 -12 11 -35 21 -49 23 -15 1 -60 21 -101 43 -40 22 -80 40 -88 40 -8 0
-28 7 -44 15 -15 8 -38 15 -51 15 -12 0 -46 8 -76 19 -49 16 -154 33 -162 25z
m-268 -520 c-9 -22 -13 -25 -16 -12 -3 10 2 24 9 32 18 20 20 13 7 -20z m12
-66 c11 -11 19 -27 19 -33 0 -7 7 -18 15 -25 12 -10 15 -9 15 5 0 10 3 15 7
12 3 -4 11 0 18 9 9 14 13 10 25 -25 13 -39 12 -43 -8 -57 -12 -8 -20 -20 -17
-25 4 -5 3 -15 -2 -21 -10 -17 -11 -58 -1 -58 4 0 8 -7 8 -15 0 -23 -20 -18
-48 13 -39 41 -66 38 -109 -13 -41 -50 -64 -50 -33 -1 11 19 20 51 20 73 0 30
7 47 28 68 18 19 23 29 15 32 -18 6 -16 49 3 67 20 21 23 20 45 -6z m-226 -98
c-3 -5 -10 -10 -16 -10 -5 0 -9 5 -9 10 0 6 7 10 16 10 8 0 12 -4 9 -10z m-70
-139 c-3 -6 -11 -11 -17 -11 -6 0 -6 6 2 15 14 17 26 13 15 -4z m152 2 c3 -7
-7 -15 -22 -19 -31 -8 -38 -3 -29 20 7 19 45 18 51 -1z m64 -73 c-5 -17 -8
-36 -6 -43 11 -39 13 -77 3 -74 -6 1 -13 -4 -15 -11 -7 -17 36 -10 48 9 5 9 9
9 9 2 0 -26 64 -43 177 -48 89 -4 121 -1 143 10 16 8 47 15 69 15 22 0 56 8
75 17 29 13 42 14 73 5 55 -16 161 -31 298 -43 65 -5 124 -14 130 -19 6 -5 31
-12 55 -16 50 -7 120 -34 120 -46 0 -13 58 -38 82 -35 17 1 23 -3 23 -18 0
-11 4 -26 9 -34 5 -8 10 -25 12 -38 2 -17 -3 -23 -18 -23 -19 0 -20 -4 -14
-61 3 -34 6 -92 6 -129 0 -55 4 -74 25 -104 32 -47 38 -134 12 -161 -15 -15
-16 -19 -3 -29 19 -15 32 -76 16 -76 -9 0 -10 -10 -6 -32 14 -66 14 -103 0
-129 -11 -23 -23 -29 -61 -34 -27 -3 -60 -9 -75 -14 -17 -6 -30 -6 -34 0 -3 5
-14 4 -26 -2 -13 -7 -40 -9 -70 -5 -31 4 -48 3 -44 -3 10 -16 -127 -19 -141
-3 -9 11 -16 11 -43 -3 -18 -9 -38 -14 -45 -12 -7 3 -16 2 -21 -3 -5 -4 -25
-11 -44 -15 -27 -5 -32 -4 -20 5 12 9 5 10 -30 5 -25 -3 -52 -6 -60 -7 -19 -1
-70 -48 -70 -64 0 -7 -6 -15 -12 -18 -7 -3 19 -3 57 -1 l70 5 -70 -20 c-93
-26 -284 -72 -312 -74 -13 -2 -31 -10 -41 -19 -20 -19 -52 -23 -52 -7 0 6 -8
6 -22 1 -47 -18 -205 -51 -247 -51 -30 0 -48 6 -57 18 -10 14 -15 15 -25 5
-17 -17 -39 -16 -39 1 0 9 -16 17 -42 21 -64 10 -228 55 -249 68 -11 7 -22 19
-24 28 -3 10 -18 20 -33 24 -15 4 -31 12 -35 18 -5 7 -6 -2 -3 -20 4 -25 2
-33 -9 -33 -8 0 -15 6 -15 13 0 25 -104 95 -115 77 -3 -5 -16 -10 -28 -10 -20
-1 -21 -2 -5 -14 24 -18 10 -29 -16 -13 -38 24 -66 26 -122 6 -43 -15 -59 -17
-70 -8 -11 9 -14 8 -14 -5 0 -33 -103 -48 -125 -18 -6 8 -34 14 -68 15 -49 2
-61 -1 -75 -19 -9 -12 -26 -26 -37 -32 -22 -11 -194 -37 -200 -30 -14 13 -16
184 -4 263 14 98 14 324 0 338 -6 6 -6 19 0 33 5 13 6 44 3 68 -4 27 -2 46 5
50 6 4 11 15 11 24 0 24 57 132 85 162 13 14 31 39 42 55 27 46 53 89 106 179
61 101 74 116 104 116 14 0 21 4 18 10 -3 6 4 10 16 10 13 0 37 5 54 11 41 15
81 5 88 -22 5 -18 11 -21 35 -16 19 4 39 0 59 -12 31 -20 170 -43 202 -34 10
3 28 0 39 -6 15 -8 29 -7 56 4 41 17 231 21 241 5 8 -13 111 -13 136 1 11 5
16 15 13 21 -4 6 -3 8 3 5 14 -9 43 29 43 56 1 20 2 20 11 4 5 -9 7 -21 4 -27
-3 -5 4 -14 15 -20 19 -10 24 -7 21 13 -1 5 3 6 9 2 5 -3 10 -22 10 -41 0 -23
4 -33 11 -28 6 3 8 16 5 28 -3 11 -3 45 1 73 5 49 7 52 29 47 20 -5 24 -2 25
17 0 13 3 18 6 11 3 -7 0 -26 -6 -42z m1476 -446 c-3 -3 -12 -4 -19 -1 -8 3
-5 6 6 6 11 1 17 -2 13 -5z m-17 -109 c0 -8 -4 -15 -9 -15 -5 0 -11 7 -15 15
-3 9 0 15 9 15 8 0 15 -7 15 -15z m-2152 -781 c28 -4 52 -9 52 -13 0 -7 -91
-5 -265 7 l-110 7 100 6 c102 6 129 5 223 -7z m2558 -34 c8 0 13 -4 9 -10 -10
-16 -35 1 -34 24 1 16 2 17 6 4 2 -10 11 -18 19 -18z m31 8 c-3 -8 -6 -5 -6 6
-1 11 2 17 5 13 3 -3 4 -12 1 -19z m-1457 -21 c0 -8 -10 -19 -22 -26 -19 -9
-19 -11 -3 -6 16 4 14 0 -8 -19 -22 -17 -39 -23 -73 -21 -37 1 -47 -2 -60 -23
-24 -37 -29 -17 -5 22 15 24 37 40 69 53 26 10 50 18 54 18 3 0 10 3 14 8 12
12 34 8 34 -6z m-1818 -44 c-2 -16 -10 -32 -17 -38 -6 -5 -14 -17 -18 -25 -4
-12 -6 -11 -6 3 -1 13 -7 16 -25 11 -33 -8 -44 1 -39 30 4 18 15 27 42 34 62
17 69 15 63 -15z m1024 -8 c43 -7 96 -51 108 -90 5 -18 1 -20 -33 -19 -38 1
-97 35 -84 48 3 3 -11 7 -33 7 -38 1 -38 2 -9 9 17 4 24 8 17 9 -7 0 -10 6 -7
11 3 6 1 10 -4 10 -6 0 -11 -4 -11 -10 0 -16 -17 -12 -24 6 -8 22 2 36 22 30
10 -2 36 -7 58 -11z m-1136 -15 c0 -5 -9 -10 -21 -10 -11 0 -17 5 -14 10 3 6
13 10 21 10 8 0 14 -4 14 -10z m1800 -20 c0 -5 -4 -10 -10 -10 -5 0 -10 -9
-10 -19 0 -11 -4 -23 -10 -26 -14 -9 -12 21 2 45 14 21 28 26 28 10z m-1740
-35 c0 -8 -6 -15 -14 -15 -17 0 -28 14 -19 24 12 12 33 6 33 -9z m1566 -30
c13 -9 24 -17 24 -18 0 -1 4 -17 10 -36 l9 -34 -107 7 c-59 3 -116 8 -127 11
-11 2 -37 7 -57 10 -45 7 -49 27 -11 52 51 34 213 39 259 8z m-1203 -51 c-5
-13 0 -14 33 -9 29 5 35 4 24 -4 -8 -6 -24 -11 -34 -11 -11 0 -28 -7 -38 -16
-16 -16 -18 -15 -24 1 -5 12 0 24 15 37 28 22 32 23 24 2z m-481 -82 c7 -10
21 -21 31 -25 20 -7 23 -33 5 -40 -8 -3 -6 -6 5 -6 11 -1 17 -9 17 -25 0 -14
5 -28 10 -31 6 -3 10 -13 10 -22 0 -14 45 -118 76 -175 8 -14 14 -37 14 -50 0
-32 18 -48 51 -48 15 0 31 -5 34 -10 8 -13 21 1 61 61 l30 46 75 -4 c40 -2
135 -11 209 -20 74 -9 150 -15 168 -14 38 1 113 33 131 55 11 13 9 17 -15 27
l-29 12 35 10 c19 6 37 14 40 18 3 3 15 9 27 13 13 4 30 15 39 24 12 11 38 17
83 19 56 2 62 1 39 -8 -16 -6 -28 -17 -28 -25 0 -8 -6 -14 -12 -14 -9 0 -8 -3
2 -10 10 -6 17 -5 22 4 4 7 21 19 38 26 16 7 30 16 30 20 0 4 9 10 20 13 13 3
22 17 26 36 5 24 12 31 30 31 13 0 24 -5 24 -11 0 -6 -8 -8 -19 -4 -15 5 -20
-1 -26 -31 -4 -25 -2 -39 6 -44 17 -11 -6 -98 -41 -153 -72 -114 -134 -159
-275 -203 -86 -26 -99 -27 -315 -28 -294 -1 -375 11 -443 68 -65 54 -123 144
-148 230 -12 39 -26 76 -31 82 -5 7 -4 23 2 38 14 39 13 69 -3 63 -10 -4 -17
10 -25 45 -7 27 -12 56 -12 64 0 20 16 18 32 -4z m1364 -88 c-3 -9 -6 -20 -6
-25 0 -5 -4 -9 -9 -9 -4 0 -6 11 -3 25 2 14 9 25 14 25 6 0 7 -7 4 -16z m-542
-116 c4 6 18 11 31 10 19 -2 22 -6 14 -19 -11 -21 -42 -34 -47 -19 -3 7 -8 5
-16 -5 -14 -19 -67 -25 -73 -7 -3 8 8 12 34 13 21 1 30 3 21 6 -10 2 -18 7
-18 10 0 3 8 12 18 19 14 10 18 10 23 -4 4 -11 8 -12 13 -4z m1452 7 c15 -5
15 -7 2 -23 -9 -9 -13 -23 -11 -29 3 -7 -3 -16 -12 -19 -14 -6 -13 -9 6 -22
17 -11 24 -12 27 -4 5 16 23 15 20 0 -2 -7 8 -14 22 -16 14 -2 32 -6 40 -9 34
-13 50 -15 162 -17 84 -1 118 2 118 11 0 7 29 14 78 18 42 3 97 11 122 17 65
17 158 13 181 -8 18 -16 19 -16 19 -1 0 16 29 25 31 10 14 -81 -9 -112 -108
-146 -178 -60 -416 -86 -618 -68 -73 6 -153 18 -176 27 -65 22 -131 63 -123
76 4 6 3 8 -3 5 -13 -8 -53 20 -53 38 0 8 -9 19 -20 25 -20 11 -25 60 -7 60 5
0 7 7 3 15 -6 18 22 35 59 35 14 0 44 -9 67 -21 44 -22 123 -28 141 -10 8 8 8
11 0 11 -11 0 -24 46 -16 54 5 4 10 3 49 -9z m-1906 -11 c0 -11 -26 -31 -49
-39 -20 -6 -23 -4 -18 10 4 9 7 21 7 26 0 5 14 9 30 9 17 0 30 -3 30 -6z m340
-49 c0 -9 -10 -15 -26 -15 -17 0 -28 -6 -31 -19 -4 -16 -10 -17 -39 -11 -18 4
-57 4 -86 0 -39 -5 -45 -8 -23 -10 22 -2 24 -4 9 -7 -27 -5 -77 14 -69 27 3 5
20 10 36 10 17 0 28 4 24 9 -5 9 44 17 145 24 25 2 48 4 53 5 4 1 7 -5 7 -13z
m594 -42 c-18 -43 -34 -64 -34 -45 0 22 29 82 39 82 6 0 3 -16 -5 -37z m-909
-3 c3 -5 -1 -10 -9 -10 -9 0 -16 5 -16 10 0 6 4 10 9 10 6 0 13 -4 16 -10z
m505 0 c11 -7 5 -10 -23 -10 -23 0 -36 4 -32 10 8 13 35 13 55 0z m-80 -14 c0
-3 -4 -8 -10 -11 -5 -3 -10 -1 -10 4 0 6 5 11 10 11 6 0 10 -2 10 -4z m2301
-69 c-10 -9 -11 -8 -5 6 3 10 9 15 12 12 3 -3 0 -11 -7 -18z m-36 -37 c-22
-25 -9 -26 19 -2 19 15 19 15 7 0 -7 -9 -9 -23 -5 -29 5 -9 2 -10 -11 -5 -15
5 -16 4 -5 -9 11 -13 10 -14 -4 -9 -14 6 -17 0 -15 -33 2 -21 -1 -44 -5 -51
-11 -18 -731 -16 -806 2 -58 14 -113 40 -105 48 3 2 33 -1 67 -8 123 -26 490
-14 643 21 80 18 163 51 195 76 39 30 53 30 25 -1z m-1149 -56 c-4 -9 -9 -15
-11 -12 -3 3 -3 13 1 22 4 9 9 15 11 12 3 -3 3 -13 -1 -22z m624 -145 c217 -4
418 -13 445 -18 60 -14 155 -52 155 -63 0 -4 7 -8 15 -8 17 0 20 -16 5 -25 -6
-4 -7 -11 -4 -17 6 -9 -5 -41 -27 -78 -5 -8 -12 -22 -16 -30 -3 -8 -13 -19
-20 -23 -8 -5 -13 -20 -11 -35 2 -15 -1 -27 -7 -27 -5 0 -25 -6 -43 -14 -25
-11 -32 -19 -29 -33 3 -11 0 -22 -8 -25 -8 -2 -17 -13 -20 -23 -10 -31 -43
-32 -54 -1 -5 14 -10 20 -10 12 -1 -8 -9 -20 -18 -27 -15 -10 -16 -15 -5 -25
22 -23 13 -34 -57 -67 -39 -19 -72 -39 -74 -45 -3 -9 -10 -9 -28 0 -13 7 -33
13 -44 15 -12 2 -19 10 -17 20 1 9 -6 19 -16 22 -23 8 -108 87 -104 98 1 4 -2
7 -7 6 -8 -3 -74 40 -110 72 -62 54 -55 51 -94 35 -32 -13 -37 -13 -51 1 -9 8
-16 11 -16 5 0 -25 -51 40 -70 90 -12 30 -36 83 -53 119 -31 62 -39 118 -14
103 6 -4 189 -10 407 -14z m-2640 -245 c0 -8 -4 -12 -10 -9 -5 3 -10 13 -10
21 0 8 5 12 10 9 6 -3 10 -13 10 -21z m2400 -114 c5 0 12 5 16 11 4 8 12 2 21
-14 7 -15 24 -29 37 -33 14 -3 28 -18 36 -39 7 -18 24 -38 37 -44 28 -13 64
-82 46 -88 -6 -2 -21 -13 -33 -23 -19 -16 -25 -17 -41 -7 -10 7 -37 12 -60 11
-26 -1 -52 4 -68 14 -18 12 -26 13 -29 4 -2 -6 -8 -12 -13 -12 -15 0 -10 32 9
53 13 14 17 39 19 101 1 92 3 108 10 84 2 -10 8 -18 13 -18z m-914 -150 c5 0
23 -11 39 -25 26 -22 28 -26 14 -35 -11 -6 -15 -18 -11 -35 3 -18 0 -25 -12
-25 -10 0 -16 -9 -16 -24 0 -14 -4 -28 -10 -31 -6 -4 -10 6 -10 22 -1 24 -2
25 -11 11 -12 -22 -33 -24 -25 -2 3 8 0 29 -8 47 -7 18 -16 49 -20 70 -7 36
-20 49 -28 25 -3 -7 -7 -6 -11 5 -5 14 0 17 29 17 25 0 33 -4 29 -12 -3 -7 0
-5 7 5 11 15 14 15 24 2 6 -8 15 -15 20 -15z m1124 -80 c0 -5 -4 -10 -10 -10
-5 0 -10 5 -10 10 0 6 5 10 10 10 6 0 10 -4 10 -10z m-882 -75 c17 -9 32 -20
32 -24 0 -7 22 -20 64 -40 5 -2 6 4 3 14 -10 25 2 37 19 20 9 -8 27 -15 40
-15 30 0 73 -21 97 -48 18 -20 18 -20 -1 -26 -11 -4 -44 -11 -74 -16 -29 -6
-73 -15 -98 -21 -50 -13 -89 -14 -325 -10 -92 1 -165 7 -172 13 -19 16 -16 41
3 34 23 -9 56 3 51 17 -7 18 12 59 23 52 6 -4 17 -1 25 5 12 10 19 8 35 -11
10 -13 19 -18 20 -11 0 7 15 12 40 12 22 0 57 7 78 17 20 9 42 17 47 17 6 1
11 13 13 28 4 30 9 29 80 -7z m-438 -85 c0 -5 -2 -10 -4 -10 -3 0 -8 5 -11 10
-3 6 -1 10 4 10 6 0 11 -4 11 -10z m-113 -42 c-3 -7 -5 -2 -5 12 0 14 2 19 5
13 2 -7 2 -19 0 -25z m373 -218 c58 -10 99 -18 91 -19 -8 -1 -11 -4 -8 -7 4
-4 12 -2 20 4 14 12 195 17 244 7 32 -7 68 -35 44 -35 -6 0 -11 5 -11 11 0 5
-4 8 -10 4 -5 -3 -7 -12 -4 -19 6 -17 -21 -40 -40 -33 -7 3 -18 1 -24 -5 -6
-6 -32 -10 -59 -9 -26 0 -63 -6 -81 -15 -18 -8 -36 -12 -41 -9 -5 3 -13 1 -16
-5 -4 -6 -15 -8 -25 -5 -10 3 -21 1 -25 -5 -8 -14 -45 -3 -65 20 -9 9 -31 17
-53 18 -52 2 -80 18 -68 40 7 14 5 18 -9 18 -10 0 -16 -4 -14 -8 11 -18 -13
-6 -35 17 -19 21 -21 28 -11 40 16 20 69 18 200 -5z m-944 -1054 c8 -8 14 -20
14 -27 0 -7 -3 -9 -7 -5 -4 3 -12 -3 -18 -15 -11 -20 -13 -19 -22 20 -9 34 -8
41 4 41 8 0 21 -6 29 -14z m26 -141 c7 -9 18 -21 24 -28 6 -7 8 -21 3 -32 -4
-11 -8 -15 -9 -10 0 6 -9 -1 -20 -15 -16 -22 -19 -23 -24 -7 -3 9 -9 25 -12
35 -10 26 -13 64 -7 95 l5 29 13 -26 c7 -14 19 -32 27 -41z m-52 45 c0 -5 -2
-10 -4 -10 -3 0 -8 5 -11 10 -3 6 -1 10 4 10 6 0 11 -4 11 -10z m3715 -20 c-3
-5 -11 -10 -16 -10 -6 0 -7 5 -4 10 3 6 11 10 16 10 6 0 7 -4 4 -10z m-3628
-37 c-3 -10 -5 -4 -5 12 0 17 2 24 5 18 2 -7 2 -21 0 -30z m3553 27 c0 -12 -8
-12 -35 0 -18 8 -17 9 8 9 15 1 27 -3 27 -9z m45 -30 c3 -5 2 -10 -4 -10 -5 0
-13 5 -16 10 -3 6 -2 10 4 10 5 0 13 -4 16 -10z m-41 -126 c9 -3 16 -15 16
-25 0 -24 -32 -25 -54 -3 -26 26 -2 43 38 28z"/>
<path d="M2660 5809 c0 -5 5 -7 10 -4 6 3 10 8 10 11 0 2 -4 4 -10 4 -5 0 -10
-5 -10 -11z"/>
<path d="M3078 4323 c7 -3 16 -2 19 1 4 3 -2 6 -13 5 -11 0 -14 -3 -6 -6z"/>
<path d="M3066 4301 c-4 -5 3 -7 14 -4 23 6 26 13 6 13 -8 0 -17 -4 -20 -9z"/>
<path d="M2068 3653 c6 -2 18 -2 25 0 6 3 1 5 -13 5 -14 0 -19 -2 -12 -5z"/>
<path d="M4097 3619 c-7 -26 -1 -39 16 -39 7 0 6 4 -3 10 -13 9 -13 11 0 20
11 7 12 12 4 20 -8 8 -13 5 -17 -11z"/>
<path d="M2640 2571 c0 -12 5 -21 10 -21 6 0 10 6 10 14 0 8 -4 18 -10 21 -5
3 -10 -3 -10 -14z"/>
<path d="M1541 1224 c0 -11 3 -14 6 -6 3 7 2 16 -1 19 -3 4 -6 -2 -5 -13z"/>
<path d="M2820 3670 c0 -6 7 -13 15 -16 8 -4 15 -12 15 -19 0 -7 7 -15 15 -19
23 -8 18 18 -8 42 -25 24 -37 28 -37 12z"/>
<path d="M1428 2429 c-9 -5 -15 -16 -12 -24 5 -13 8 -13 21 0 8 9 19 13 24 10
5 -4 9 1 9 9 0 18 -17 20 -42 5z"/>
<path d="M1455 2390 c3 -5 8 -10 11 -10 2 0 4 5 4 10 0 6 -5 10 -11 10 -5 0
-7 -4 -4 -10z"/>
<path d="M3690 2060 c0 -5 5 -10 10 -10 6 0 10 5 10 10 0 6 -4 10 -10 10 -5 0
-10 -4 -10 -10z"/>
<path d="M1750 1961 c0 -6 5 -13 10 -16 6 -3 10 1 10 9 0 9 -4 16 -10 16 -5 0
-10 -4 -10 -9z"/>
<path d="M1183 1510 c-13 -5 -23 -12 -23 -15 0 -8 53 6 65 16 12 12 -13 11
-42 -1z"/>
<path d="M1413 1115 c0 -22 2 -30 4 -17 2 12 2 30 0 40 -3 9 -5 -1 -4 -23z"/>
<path d="M5355 1010 c3 -5 8 -10 11 -10 2 0 4 5 4 10 0 6 -5 10 -11 10 -5 0
-7 -4 -4 -10z"/>
<path d="M5290 894 c0 -6 11 -14 25 -16 14 -3 22 -1 18 5 -3 5 0 12 6 16 7 4
-2 8 -19 8 -17 0 -30 -6 -30 -13z"/>
<path d="M5455 860 c3 -5 8 -10 11 -10 2 0 4 5 4 10 0 6 -5 10 -11 10 -5 0 -7
-4 -4 -10z"/>
<path d="M5114 839 c-15 -16 -15 -20 -4 -18 8 1 23 -1 33 -6 11 -4 30 -2 45 5
26 11 26 12 7 26 -27 20 -59 17 -81 -7z"/>
<path d="M5515 820 c-4 -6 -3 -16 3 -22 6 -6 12 -6 17 2 4 6 3 16 -3 22 -6 6
-12 6 -17 -2z"/>
<path d="M5607 823 c-12 -11 -8 -23 8 -23 8 0 15 7 15 15 0 16 -12 20 -23 8z"/>
<path d="M5390 806 c0 -8 -11 -17 -25 -20 -32 -8 -32 -26 0 -26 28 0 75 -20
75 -32 0 -4 9 -8 20 -8 11 0 20 4 20 9 0 5 9 13 20 16 11 3 20 10 20 14 0 13
-52 36 -73 33 -15 -3 -18 0 -14 12 5 12 0 16 -18 16 -15 0 -25 -6 -25 -14z"/>
<path d="M5558 808 c5 -7 13 -27 16 -44 5 -24 12 -31 29 -30 25 1 37 36 13 36
-9 0 -22 11 -28 25 -6 14 -18 25 -26 25 -10 0 -12 -4 -4 -12z"/>
<path d="M5184 786 c-10 -8 -17 -17 -14 -19 3 -3 14 1 24 9 11 7 17 16 15 19
-3 3 -14 -2 -25 -9z"/>
<path d="M5535 750 c4 -6 11 -8 16 -5 14 9 11 15 -7 15 -8 0 -12 -5 -9 -10z"/>
<path d="M5293 708 c-2 -5 3 -8 12 -8 12 0 15 -6 10 -20 -5 -16 -2 -20 14 -20
12 0 21 6 21 14 0 8 2 21 6 29 4 11 -3 14 -26 13 -18 -1 -34 -4 -37 -8z"/>
<path d="M5500 709 c0 -5 5 -7 10 -4 6 3 10 8 10 11 0 2 -4 4 -10 4 -5 0 -10
-5 -10 -11z"/>
<path d="M5444 693 c3 -4 1 -12 -5 -19 -8 -10 -16 -11 -29 -4 -22 12 -28 4
-25 -30 1 -21 7 -25 39 -28 34 -2 36 -1 30 23 -5 19 -2 25 11 25 23 0 15 32
-8 36 -11 1 -16 0 -13 -3z"/>
<path d="M5498 653 c7 -3 16 -2 19 1 4 3 -2 6 -13 5 -11 0 -14 -3 -6 -6z"/>
<path d="M5230 630 c0 -5 4 -10 9 -10 6 0 13 5 16 10 3 6 -1 10 -9 10 -9 0
-16 -4 -16 -10z"/>
<path d="M5608 613 c7 -3 16 -2 19 1 4 3 -2 6 -13 5 -11 0 -14 -3 -6 -6z"/>
<path d="M4956 575 c25 -19 35 -19 28 0 -4 8 -16 15 -27 15 -20 0 -20 0 -1
-15z"/>
<path d="M5510 581 c0 -5 5 -13 10 -16 6 -3 10 -2 10 4 0 5 -4 13 -10 16 -5 3
-10 2 -10 -4z"/>
<path d="M4920 551 c0 -6 5 -13 11 -17 6 -3 9 -19 5 -35 -6 -31 7 -45 37 -41
9 2 17 -2 17 -7 0 -6 -4 -11 -10 -11 -5 0 -10 -6 -10 -13 0 -8 12 -14 29 -14
l30 0 -20 29 c-18 24 -19 33 -10 60 15 43 14 56 -3 32 -14 -19 -15 -19 -38 4
-26 24 -38 28 -38 13z"/>
<path d="M5165 550 c3 -5 12 -7 20 -3 21 7 19 13 -6 13 -11 0 -18 -4 -14 -10z"/>
<path d="M5130 535 c7 -9 15 -13 17 -11 7 7 -7 26 -19 26 -6 0 -6 -6 2 -15z"/>
<path d="M5316 541 c10 -11 30 -14 59 -11 l20 1 -20 9 c-28 12 -72 12 -59 1z"/>
<path d="M430 510 c0 -5 5 -10 10 -10 6 0 10 5 10 10 0 6 -4 10 -10 10 -5 0
-10 -4 -10 -10z"/>
<path d="M5558 503 c7 -3 16 -2 19 1 4 3 -2 6 -13 5 -11 0 -14 -3 -6 -6z"/>
<path d="M5360 480 c0 -19 3 -21 12 -12 9 9 9 15 0 24 -9 9 -12 7 -12 -12z"/>
<path d="M5580 480 c0 -5 5 -10 10 -10 6 0 10 5 10 10 0 6 -4 10 -10 10 -5 0
-10 -4 -10 -10z"/>
<path d="M5270 459 c0 -14 5 -15 35 -5 19 6 35 14 35 19 0 4 -16 7 -35 5 -25
-1 -35 -7 -35 -19z"/>
<path d="M5092 448 c6 -18 28 -21 28 -4 0 9 -7 16 -16 16 -9 0 -14 -5 -12 -12z"/>
<path d="M5325 430 c3 -5 11 -10 16 -10 6 0 7 5 4 10 -3 6 -11 10 -16 10 -6 0
-7 -4 -4 -10z"/>
<path d="M5200 406 c-7 -13 -9 -29 -5 -35 10 -16 27 -2 20 17 -3 8 -1 19 6 22
7 5 7 10 2 13 -6 4 -16 -4 -23 -17z"/>
<path d="M5120 393 c0 -5 4 -14 9 -21 7 -11 9 -11 14 1 3 8 3 18 0 21 -9 8
-23 7 -23 -1z"/>
<path d="M5375 370 c-3 -6 1 -7 9 -4 18 7 21 14 7 14 -6 0 -13 -4 -16 -10z"/>
<path d="M5578 343 c-37 -6 -36 -23 1 -23 32 0 50 -15 29 -23 -8 -3 -6 -6 5
-6 12 -1 17 7 17 29 0 18 -5 29 -12 29 -7 -1 -25 -4 -40 -6z"/>
<path d="M4850 319 c0 -5 5 -7 10 -4 6 3 10 8 10 11 0 2 -4 4 -10 4 -5 0 -10
-5 -10 -11z"/>
<path d="M4925 290 c-3 -5 -1 -10 4 -10 6 0 11 5 11 10 0 6 -2 10 -4 10 -3 0
-8 -4 -11 -10z"/>
<path d="M5021 277 c-6 -6 -11 -21 -11 -34 0 -17 -6 -23 -21 -23 -28 0 -16
-16 22 -29 30 -10 31 -10 26 16 -6 35 1 53 19 46 19 -7 18 -1 -5 19 -14 12
-22 13 -30 5z"/>
<path d="M4875 250 c4 -6 11 -8 16 -5 14 9 11 15 -7 15 -8 0 -12 -5 -9 -10z"/>
<path d="M4911 256 c2 -2 18 -6 34 -10 22 -5 26 -4 15 4 -14 9 -59 15 -49 6z"/>
<path d="M120 211 c0 -5 11 -8 25 -8 14 0 25 3 25 8 0 5 -11 9 -25 9 -14 0
-25 -4 -25 -9z"/>
<path d="M4870 210 c-13 -8 -12 -10 3 -10 9 0 17 5 17 10 0 12 -1 12 -20 0z"/>
<path d="M5100 210 c0 -5 5 -10 10 -10 6 0 10 5 10 10 0 6 -4 10 -10 10 -5 0
-10 -4 -10 -10z"/>
<path d="M567 203 c-12 -12 -7 -22 8 -17 8 4 15 10 15 15 0 11 -14 12 -23 2z"/>
<path d="M4830 161 c0 -25 6 -27 13 -6 4 8 2 17 -3 20 -6 4 -10 -3 -10 -14z"/>
<path d="M210 146 c0 -8 5 -18 10 -21 6 -3 10 1 10 9 0 8 -4 18 -10 21 -5 3
-10 -1 -10 -9z"/>
<path d="M5572 138 c3 -7 13 -15 24 -17 10 -2 22 -8 26 -15 5 -7 8 -6 8 5 0 8
-5 20 -12 27 -16 16 -51 16 -46 0z"/>
<path d="M4780 114 c0 -8 9 -14 20 -14 11 0 20 4 20 9 0 5 -9 11 -20 14 -13 3
-20 0 -20 -9z"/>
<path d="M5035 120 c27 -12 43 -12 25 0 -8 5 -22 9 -30 9 -10 0 -8 -3 5 -9z"/>
<path d="M4937 113 c-7 -13 11 -53 24 -53 6 0 9 9 6 20 -3 13 0 20 10 20 8 0
11 5 8 10 -7 12 -42 13 -48 3z"/>
<path d="M5560 100 c-9 -6 -10 -10 -3 -10 6 0 15 5 18 10 8 12 4 12 -15 0z"/>
<path d="M5148 93 c6 -2 18 -2 25 0 6 3 1 5 -13 5 -14 0 -19 -2 -12 -5z"/>
<path d="M1285 79 c-4 -6 -5 -12 -4 -14 7 -7 59 8 59 16 0 13 -47 11 -55 -2z"/>
<path d="M5035 70 c-8 -13 20 -24 36 -15 8 6 7 10 -2 16 -18 11 -26 11 -34 -1z"/>
<path d="M4900 46 c0 -9 5 -16 10 -16 6 0 10 4 10 9 0 6 -4 13 -10 16 -5 3
-10 -1 -10 -9z"/>
<path d="M4705 40 c-3 -5 1 -10 9 -10 9 0 16 5 16 10 0 6 -4 10 -9 10 -6 0
-13 -4 -16 -10z"/>
<path d="M5255 30 c-35 -6 -32 -7 28 -9 43 0 66 3 62 9 -7 11 -29 11 -90 0z"/>
<path d="M5403 33 c-22 -8 -14 -23 12 -23 14 0 25 4 25 9 0 11 -21 19 -37 14z"/>
<path d="M4660 15 c0 -9 5 -15 11 -13 6 2 11 8 11 13 0 5 -5 11 -11 13 -6 2
-11 -4 -11 -13z"/>
<path d="M4826 16 c4 -10 18 -14 45 -13 46 2 39 12 -13 21 -31 6 -37 4 -32 -8z"/>
</g>
</svg>
